<?xml version="1.0" encoding="utf-8"?>
<!-- Generator: Adobe Illustrator 19.0.0, SVG Export Plug-In . SVG Version: 6.00 Build 0)  -->
<svg version="1.1" id="Layer_1" xmlns="http://www.w3.org/2000/svg" xmlns:xlink="http://www.w3.org/1999/xlink" x="0px" y="0px"
	 viewBox="0 0 595.3 841.9" style="enable-background:new 0 0 595.3 841.9;" xml:space="preserve">
<style type="text/css">
	.st0{fill:#121212;}
	.st1{fill:#171B1C;}
	.st2{fill:#92C5D3;}
	.st3{fill:#FFFFFF;}
	.st4{fill:#F3FAFA;}
	.st5{opacity:0.2345;fill:#010101;enable-background:new    ;}
	.st6{fill:#170B0C;}
	.st7{fill:#AA4724;}
	.st8{fill:#301313;}
	.st9{fill:#8C3737;}
	.st10{opacity:0.252;fill:#010101;enable-background:new    ;}
	.st11{opacity:0.4593;fill:#EF3733;enable-background:new    ;}
	.st12{fill:#2B1010;}
	.st13{fill:#511211;}
	.st14{fill:#493838;}
	.st15{opacity:0.2886;fill:#1E1717;enable-background:new    ;}
	.st16{fill:#926F6F;}
	.st17{fill:#272626;}
	.st18{fill:#111111;}
	.st19{opacity:0.1549;fill:#010101;enable-background:new    ;}
	.st20{fill:#FFD42B;}
	.st21{fill:#FDEC14;}
	.st22{fill:#221E10;}
	.st23{opacity:0.5;fill:#AC9292;enable-background:new    ;}
	.st24{opacity:0.1814;fill:#010101;enable-background:new    ;}
	.st25{fill:#D9D9D8;}
	.st26{fill:#F6EB16;}
	.st27{fill:#1F2313;}
	.st28{fill:#4DC8F1;}
	.st29{opacity:0.4115;fill:#FFFFFF;enable-background:new    ;}
	.st30{opacity:0.2212;fill:#010101;enable-background:new    ;}
	.st31{fill:#756060;}
	.st32{opacity:0.2301;fill:#010101;enable-background:new    ;}
	.st33{opacity:0.208;fill:#010101;enable-background:new    ;}
	.st34{fill:#032821;}
	.st35{opacity:0.2788;fill:#010101;enable-background:new    ;}
	.st36{opacity:0.7699;fill:#826C6C;enable-background:new    ;}
	.st37{opacity:0.292;fill:#010101;enable-background:new    ;}
	.st38{opacity:0.2699;fill:#010101;enable-background:new    ;}
	.st39{fill:#3F7886;}
	.st40{opacity:0.2876;fill:#010101;enable-background:new    ;}
	.st41{opacity:0.7832;fill:#FFFFFF;enable-background:new    ;}
	.st42{opacity:0.323;fill:#010101;enable-background:new    ;}
	.st43{opacity:0.5921;fill:#D6EFF6;enable-background:new    ;}
	.st44{opacity:0.1009;fill:#010101;enable-background:new    ;}
	.st45{opacity:0.1637;fill:#010101;enable-background:new    ;}
	.st46{opacity:0.2345;fill:#FFFFFF;enable-background:new    ;}
	.st47{fill:#15191B;}
	.st48{fill:#DBE2E3;}
	.st49{fill:#1D2224;}
	.st50{fill:#333C41;}
	.st51{opacity:0.2743;fill:#010101;enable-background:new    ;}
	.st52{opacity:0.5708;fill:#F6EB16;enable-background:new    ;}
	.st53{opacity:0.4248;fill:#010101;enable-background:new    ;}
	.st54{fill:#0E2328;}
	.st55{fill:#88CDDD;}
	.st56{opacity:0.1283;fill:#010101;enable-background:new    ;}
	.st57{fill:#068EB1;}
	.st58{opacity:0.531;fill:#70CDDD;enable-background:new    ;}
	.st59{fill:#91D8F1;}
	.st60{opacity:0.2168;fill:#010101;enable-background:new    ;}
	.st61{fill:#200D0D;}
	.st62{fill:#F26822;}
	.st63{fill:#FFCD05;}
	.st64{opacity:0;fill:#ED2224;}
	.st65{opacity:0;fill:#F6EB16;}
</style>
<g id="layer1" transform="translate(-889.01917,196.47936)" inkscape:label="Layer 1" inkscape:groupmode="layer">
	
		<g id="g21683" transform="translate(265.47979,372.11629)" inkscape:export-filename="C:\Users\rober\Desktop\assets\ASSETS_2018\trucks\truck_2\truck_1_body_lights_off_yellow.png" inkscape:export-xdpi="180" inkscape:export-ydpi="180">
		<g id="g21685" transform="translate(-16.03617,0)">
			<path id="path21687" inkscape:connector-curvature="0" class="st0" d="M1058.8-139.1c-32.7,5.9-351.9,58.7-351.9,61.7
				c0,2.9,1.4,14.7,1.4,14.7l355.4-63.9L1058.8-139.1L1058.8-139.1z"/>
			<g id="g21689" transform="translate(1408.5493,-388.09019)">
				<path id="path21691" inkscape:connector-curvature="0" class="st1" d="M-172.3,245h27.8c4,0,7.2,3.2,7.2,7.2v27.8
					c0,4-3.2,7.2-7.2,7.2h-27.8c-4,0-7.2-3.2-7.2-7.2v-27.8C-179.5,248.2-176.3,245-172.3,245z"/>
				<path id="path21693" sodipodi:nodetypes="sssssssss" inkscape:connector-curvature="0" class="st1" d="M-164.4,272.1h29.1
					c5.2,0,9.4,4.2,9.4,9.4v36.3c0,5.2-4.2,9.4-9.4,9.4h-29.1c-5.2,0-9.4-4.2-9.4-9.4v-36.3C-173.8,276.3-169.6,272.1-164.4,272.1z"
					/>
				<path id="path21695" inkscape:connector-curvature="0" class="st2" d="M-181,248.5c0,0,37.1,0.7,37.9,2.5s2.1,21.1,0.7,21.1
					c-1.4,0-44.3,0-44.3,0l-1.1-22.5L-181,248.5z"/>
				<path id="path21697" sodipodi:nodetypes="ccccc" inkscape:connector-curvature="0" class="st2" d="M-165.3,277.3
					c18.7-1.5,29.3-0.5,31.3,2.5s3.5,36.9,1.5,39.4s-34.3,0.5-34.3,0.5L-165.3,277.3z"/>
				<path id="path21699" inkscape:connector-curvature="0" class="st3" d="M-150.1,276.6c-4.2,0-9.3,0.2-15.1,0.7l-0.2,4.7
					c13.9-0.9,27.6-0.6,29.8,3.8c0.9,1.8,2.3,5.9,3.8,10.4c-0.4-7.8-1.2-15-2.1-16.3C-135.3,277.7-140.8,276.6-150.1,276.6z"/>
				<path id="path21701" inkscape:connector-curvature="0" class="st4" d="M-180.9,248.5l-6.8,1.1l0.4,7.7
					c5.7-1.7,12.8-5.6,12.8-5.6l-1.8-0.4c13.2,0.4,30,2.5,31.1,4.7c0.5,1.1,2.1,5.7,3.5,10c-0.1-5.8-0.9-13.9-1.3-15
					C-143.8,249.3-180.9,248.5-180.9,248.5z"/>
				<path id="path21703" inkscape:connector-curvature="0" class="st5" d="M-166.3,306.8l-0.5,12.9c0,0,32.3,2,34.3-0.5
					c0.7-0.9,1-6.1,0.9-12.4H-166.3z"/>
			</g>
			<g id="g21705" transform="translate(1408.5493,-388.09019)">
				<path id="path21707" inkscape:connector-curvature="0" class="st0" d="M-781.7,249.3l-13.6,9.3c3.3,13.3,8.9,24,15.8,32.6
					c-1.4,1.7-2.6,3.8-2.6,3.8s5.8,9.3,16.5,16.4c-1.1,2.6-2.3,5.4-2.3,5.4s8.5,3.4,18.6,6.6l-0.7,3.4c0,0,19.6,6.1,32.5,6.4
					c1.4,0,2.7,0,3.9-0.1c1.8,3.7,5.6,6.2,9.9,6.2c4.3,0,8-2.5,9.9-6.1c0.2,0,0.4,0,0.6,0c12.9-0.4,32.5-6.4,32.5-6.4l-0.7-3.4
					c10.1-3.2,18.6-6.6,18.6-6.6s-1.2-2.7-2.3-5.4c10.7-7.1,16.6-16.4,16.6-16.4s-1.1-2.1-2.6-3.8c6.9-8.6,12.5-19.3,15.8-32.6
					l-13.6-9.3c0,0,3.6,11.4-21.4,39.3c-12.7,14.2-29.8,21.1-43.4,24.6v-56.7c0-1.3-1-2.3-2.3-2.3H-711c-1.3,0-2.3,1-2.3,2.3v57.5
					c-14.1-3.1-33-9.9-46.9-25.4C-785.2,260.7-781.7,249.3-781.7,249.3L-781.7,249.3z"/>
				<g id="g21709" transform="matrix(-1,0,0,1,943.42848,0)">
				</g>
				<g id="g21711">
				</g>
			</g>
			<g id="g21713" transform="matrix(1.1918722,0,0,1.1918722,1575.1027,-522.37167)">
				<g id="g21715" transform="translate(0.09449405,0.47247025)">
					<path id="path21717" sodipodi:nodetypes="csccc" inkscape:connector-curvature="0" class="st6" d="M-836,307.3
						c-2.9,0-11.8,2.4-12.4,3.3s0,15.6,0,15.6l13.4,3.2L-836,307.3z"/>
					<path id="path21719" sodipodi:nodetypes="ccccc" inkscape:connector-curvature="0" class="st7" d="M-834.2,309.1
						c-3.6,1.4-10,2.5-10.4,4.3s0.4,10.4,0.4,10.4l10.4,2.5L-834.2,309.1z"/>
				</g>
				<g id="g21721">
					<path id="path21723" inkscape:connector-curvature="0" class="st6" d="M-839.5,307.2c0,3.9,0,23.6,0,23.6l15.4,3.6l-0.7-28.6
						L-839.5,307.2z"/>
					<path id="path21725" inkscape:connector-curvature="0" class="st7" d="M-835.2,311.5l11.4-0.4l0.4,21.1l-12.5-3.6L-835.2,311.5
						z"/>
				</g>
				<g id="g21727" transform="matrix(2.3793104,0,0,2.3793104,-512.64709,-46.840803)">
					<path id="path21729" sodipodi:nodetypes="cccc" inkscape:connector-curvature="0" class="st8" d="M-135.7,162
						c-0.5,0.1-11.1-1.4-11.3,5.3c0.1,6.6,11,5.3,11.7,5.3L-135.7,162z"/>
					<path id="path21731" sodipodi:nodetypes="cccc" inkscape:connector-curvature="0" class="st9" d="M-135.7,163.7
						c-0.4,0.1-9.5-1.4-9.5,3.7c0.1,5.2,9.2,3.6,9.9,3.6L-135.7,163.7z"/>
					<path id="path21733" inkscape:connector-curvature="0" class="st10" d="M-145.2,167.7c0.4,4.9,9.2,3.3,9.8,3.3l-0.1-3
						C-139,168-142.4,167.9-145.2,167.7z"/>
					<path id="path21735" inkscape:connector-curvature="0" class="st11" d="M-138.9,163.6c-2.8,0-6.3,0.7-6.3,3.9
						c0,1.9,1.3,2.9,3,3.4c-2.2-1.8-2.9-5.3,0.8-6.3c1-0.3,3.1-0.3,5.8-0.2l0-0.6C-135.8,163.7-137.2,163.6-138.9,163.6
						L-138.9,163.6z"/>
				</g>
				<g id="g21737" transform="matrix(2.3793104,0,0,2.3793104,-512.64709,-46.840803)">
					<path id="rect21739" class="st12" d="M-137.9,160.7h7.9c0.1,0,0.2,0.1,0.2,0.3v12.4c0,0.1-0.1,0.3-0.2,0.3h-7.9
						c-0.1,0-0.2-0.1-0.2-0.3V161C-138.1,160.8-138,160.7-137.9,160.7z"/>
					<path id="rect21741" class="st13" d="M-136.5,162.2h6c0,0,0,0,0,0.1v9.4c0,0,0,0.1,0,0.1h-6c0,0,0,0,0-0.1L-136.5,162.2
						C-136.6,162.2-136.6,162.2-136.5,162.2z"/>
				</g>
				<g id="g21743" transform="matrix(2.3793104,0,0,2.3793104,-512.64709,-46.840803)">
					<path id="rect21745" class="st0" d="M-132.8,146.8h13.2c0.4,0,0.7,0.4,0.7,1v27.3c0,0.5-0.3,1-0.7,1h-13.2
						c-0.4,0-0.7-0.4-0.7-1v-27.3C-133.6,147.3-133.2,146.8-132.8,146.8z"/>
					<path id="path21747" sodipodi:nodetypes="sssssssss" inkscape:connector-curvature="0" class="st14" d="M-131.5,149.1h10.3
						c0.3,0,0.6,0.3,0.6,0.8v23.4c0,0.4-0.3,0.8-0.6,0.8h-10.3c-0.3,0-0.6-0.3-0.6-0.8v-23.4C-132.1,149.4-131.8,149.1-131.5,149.1z
						"/>
					<path id="path21749" inkscape:connector-curvature="0" class="st15" d="M-120.6,156.4c-0.5,5.1-1.7,15.3-1.7,15.3l-8.7,0.1
						c0,0-0.6-4.2-1.1-8.2v9.8c0,0.4,0.2,0.8,0.6,0.8h10.3c0.3,0,0.6-0.3,0.6-0.8L-120.6,156.4L-120.6,156.4z"/>
					<path id="path21751" inkscape:connector-curvature="0" class="st16" d="M-131.5,149.1c-0.3,0-0.6,0.3-0.6,0.8v11.9
						c0.8-5.5,1.6-11.2,1.6-11.2s8.8-0.5,9-0.2c0.1,0.1,0.4,1.7,0.9,3.9v-4.4c0-0.4-0.3-0.8-0.6-0.8H-131.5z"/>
				</g>
			</g>
			<path id="path21753" sodipodi:nodetypes="sssssssss" inkscape:connector-curvature="0" class="st17" d="M987.7-253.1l95.4,7.1
				c45.5,3.4,160.1,32.9,160.1,33v116.8c0,0.1-0.1,0.2-0.1,0.2H987.7c-0.1,0-0.1-0.1-0.1-0.2V-253
				C987.6-253,987.7-253.1,987.7-253.1L987.7-253.1z"/>
			<g id="g21755" transform="translate(1408.5493,-389.56967)">
				<g id="g21757" transform="translate(0,0.7559524)">
					<path id="rect21759" class="st18" d="M-463.6,284.1h99.2c0.2,0,0.4,0.2,0.4,0.5v45.9c0,0.3-0.2,0.5-0.4,0.5h-99.2
						c-0.2,0-0.4-0.2-0.4-0.5v-45.9C-464,284.3-463.9,284.1-463.6,284.1z"/>
					<path id="rect21761" class="st14" d="M-458.8,289.9h88.8c0.2,0,0.4,0.2,0.4,0.4v34c0,0.2-0.2,0.4-0.4,0.4h-88.8
						c-0.2,0-0.4-0.2-0.4-0.4v-34C-459.1,290-458.9,289.9-458.8,289.9z"/>
					<path id="path21763" inkscape:connector-curvature="0" class="st19" d="M-386,311.9c-30.1,0.1-66.7,0.9-73.1,1v11.3
						c0,0.2,0.1,0.4,0.3,0.4h88.8c0.2,0,0.3-0.2,0.3-0.4v-12.3C-374.5,311.9-380,311.9-386,311.9L-386,311.9z"/>
				</g>
				<g id="g21765">
					<path id="rect21767" class="st18" d="M-474.1,252.8h118.4c0.3,0,0.5,0.2,0.5,0.5v45.9c0,0.3-0.2,0.5-0.5,0.5h-118.4
						c-0.3,0-0.5-0.2-0.5-0.5v-45.9C-474.5,253-474.3,252.8-474.1,252.8z"/>
					<path id="rect21769" class="st14" d="M-469.7,258.6h108.3c0.2,0,0.4,0.2,0.4,0.4v34c0,0.2-0.2,0.4-0.4,0.4h-108.3
						c-0.2,0-0.4-0.2-0.4-0.4v-34C-470.1,258.7-469.9,258.6-469.7,258.6z"/>
					<path id="path21771" inkscape:connector-curvature="0" class="st19" d="M-438.5,274.5c-12.7,0-23.9,0-31.6,0.1v18.3
						c0,0.2,0.2,0.4,0.4,0.4h108.3c0.2,0,0.4-0.2,0.4-0.4V275C-376.4,274.9-409,274.6-438.5,274.5z"/>
				</g>
				<g id="g21773" transform="translate(0.4009043,-0.06681742)">
					<path id="rect21775" class="st18" d="M-475.2,287.4h123c1.3,0,2.4,1.1,2.4,2.4v14.2c0,1.3-1.1,2.4-2.4,2.4h-123
						c-1.3,0-2.4-1.1-2.4-2.4v-14.2C-477.5,288.4-476.5,287.4-475.2,287.4z"/>
					<path id="path21777" sodipodi:nodetypes="ssscsssss" inkscape:connector-curvature="0" class="st20" d="M-471.6,292.4h114.7
						c1.1,0,2,0.9,2,2v5.6c0,0-0.9,2-2,2h-114.7c-1.1,0-2-0.9-2-2v-5.6C-473.6,293.3-472.7,292.4-471.6,292.4z"/>
					<path id="path21779" inkscape:connector-curvature="0" class="st21" d="M-471.6,292.4c-1.1,0-2,0.9-2,2v5.6
						c0,0.3,0.1,0.7,0.2,0.9c0.9-2.8,2.3-6,3.7-6c1.8,0,112.4,0.7,113.4,1.3c0.3,0.2,0.9,1.4,1.4,2.9v-4.7c0-1.1-0.9-2-2-2H-471.6z"
						/>
				</g>
				<g id="g21781" transform="matrix(0.8320158,0,0,0.8320158,91.783709,58.136857)">
					<path id="rect21783" class="st18" d="M-672,315.6h123c1.3,0,2.4,1.1,2.4,2.4v14.2c0,1.3-1.1,2.4-2.4,2.4h-123
						c-1.3,0-2.4-1.1-2.4-2.4V318C-674.4,316.7-673.3,315.6-672,315.6z"/>
					<path id="path21785" sodipodi:nodetypes="ssscsssss" inkscape:connector-curvature="0" class="st20" d="M-668.5,320.7h114.7
						c1.1,0,2,0.9,2,2v5.6c0,0-0.9,2-2,2h-114.7c-1.1,0-2-0.9-2-2v-5.6C-670.5,321.5-669.6,320.7-668.5,320.7z"/>
					<path id="path21787" inkscape:connector-curvature="0" class="st21" d="M-668.5,320.7c-1.1,0-2,0.9-2,2v5.6
						c0,0.3,0.1,0.7,0.2,0.9c0.9-2.8,2.3-6,3.7-6c1.8,0,112.4,0.7,113.4,1.3c0.3,0.2,0.9,1.4,1.4,2.9v-4.7c0-1.1-0.9-2-2-2H-668.5z"
						/>
				</g>
			</g>
			<path id="path21789" inkscape:connector-curvature="0" class="st0" d="M1076.7-261.6c16.6-2.1,41.4,0,41.4,0s1,78.7,0,79.7
				c-1,1-13.5,19.2-16,19.2c-2.6,0-17.1-39.3-17.6-46.1C1083.9-215.5,1076.7-261.6,1076.7-261.6z"/>
			<path id="path21791" sodipodi:nodetypes="ccsccsccsccc" inkscape:connector-curvature="0" class="st22" d="M1083.4-275.9
				c-9.6,0.1,3.3,12.2,3.3,12.2s12.7-3.1,14.7,8.6s-9.4,73.9-7.4,76c2,2.1,23,10.6,25,11.1c2,0.5,18.6-18.6,56.4-11.2
				c37.8,7.4,48.9,46.3,48.9,46.3l19.6,8.1c-2-44.7,0-105.8-4.5-115.9c-4.5-10.1-117.7-26.7-152.6-31.3
				C1086-272.2,1084-276,1083.4-275.9L1083.4-275.9z"/>
			<path id="path21793" sodipodi:nodetypes="ccccccsccscscc" inkscape:connector-curvature="0" class="st22" d="M1115.1-166.1
				c-1.5-2.7-16.6-19.7-16.1-21.8c0.5-2.1,6.2-65.9,3.7-70.7c-2.5-4.8-14.6-11.9-14.6-11.9s-17-46.1-27.6-78.4
				c-6.8-18.4-6.3-26.1-25.6-26.8c-32.3-1.2-107.5,5.4-108.8,9.8c-1.5,5.3-6.9,231.8-3.9,237.1c3,5.3,144.6,3,144.6,3
				s-2.5,21-2.5,30c0,9,9.3,4.6,9.3,4.6s0.3-17.3,11.8-38.6C1096.9-151.2,1115.1-166.1,1115.1-166.1L1115.1-166.1z"/>
			<g id="g21795" transform="matrix(2.2818499,0,0,2.2818499,1305.6946,-845.36812)">
				<path id="path21797" sodipodi:nodetypes="sssssssss" inkscape:connector-curvature="0" class="st0" d="M-169.5,299.6h-127.3
					c-1,0-1.9,0.8-1.9,1.9v12.2c0,1,0.8,1.9,1.9,1.9h127.3c1,0,1.9-0.8,1.9-1.9v-12.2C-167.7,300.5-168.5,299.6-169.5,299.6z"/>
				<path id="path21799" sodipodi:nodetypes="cssssssssc" inkscape:connector-curvature="0" class="st14" d="M-171.1,301.7
					l-124.1,0.9c-0.9,0-2.4,1-2.4,1.8v7.1c0,0.8,0.7,1.4,1.7,1.4l124.8,0.2c0.9,0,1.7-0.6,1.7-1.4v-8.5
					C-169.4,302.3-171.1,300.8-171.1,301.7L-171.1,301.7z"/>
				<path id="path21801" sodipodi:nodetypes="ccccc" inkscape:connector-curvature="0" class="st23" d="M-297.5,311.5
					c0,0.8,0.7,1.4,1.7,1.4l124.8,0.2c0.9,0,1.7-0.7,1.7-1.5L-297.5,311.5z"/>
				<path id="path21803" sodipodi:nodetypes="ccsccsc" inkscape:connector-curvature="0" class="st24" d="M-171.1,301.7l-124.1,0.9
					c-0.9,0-2.4,1-2.4,1.8v1.3h128.2v-2.6C-169.4,302.3-170.1,301.7-171.1,301.7z"/>
			</g>
			<path id="path21805" inkscape:connector-curvature="0" class="st25" d="M1033.3-370.9c-29.5,0.1-100.8,4.3-102.1,9
				c-0.1,1.6-0.3,6.3-0.4,13.2c21.6,0.2,119.6-0.1,123.2-0.1C1049.3-363,1047.2-370.7,1033.3-370.9L1033.3-370.9z"/>
			
				<path id="path21807" sodipodi:nodetypes="ccccccccccccsccccccscscccsccccccccccccccccc" inkscape:connector-curvature="0" class="st20" d="
				M1055.6-345.9l-11.3,0.1c2.6,7.2,27.7,88.4,28.2,91.4c0.5,3.1,0.5,92.3,0.5,92.3l-22.2,19.8l-1.3,0.1H944.7v7.3l123.9-0.9
				c-0.2-3.2,8.3-13.5,14.6-23.4c-5.1,22.1-16.2,58-14.1,63.6l2.1,2.1c0,0-0.6-20.3,10.3-42.2c10.4-20.9,18.4-24.9,25.9-31.1
				c1.7-1.4-1.6,2.4-4.4-1.7c-0.5-0.1-4.8-0.1-9.8,0c4.1-4.5,8.1-7.4,11-7.3l-6.9-16.5c0,0,1.3-26.1,1-44.4
				c2.8,19.9,4.6,42.3,5.5,44.2c1.6,3.1,11.6,19.5,11.6,19.5s37.2-27.2,78-5.9c39.5,20.6,34.9,42.8,34.9,42.8l8.4-2.8
				c0,0,1.7-88.2-3.8-97.1c-1.4-2.2-5.7-5.7-12.8-7.1c-71.4-13.8-102-20.4-130.1-24.1c-3,5.2-6.6,7.4-6.6,7.4
				S1065.5-313.1,1055.6-345.9L1055.6-345.9z M1040.3-345.7l-95.6,0.8V-146l101.4,0.1c0.2,0,3.5,0.2,3.6,0.1
				c4.7-5.1,16.4-14.2,19.8-18.9c0.5-3.6-1.2-89.1-1.2-89.1L1040.3-345.7z M941.8-344.9l-11.1,0.1c-1.2,52.9-3.1,210.3-3.1,210.3
				l14.2-0.1V-344.9z"/>
			<path id="path21809" inkscape:connector-curvature="0" class="st3" d="M1033.3-370.9c-29.5,0.1-100.8,4.3-102.1,9
				c-0.1,1.6-0.3,6.3-0.4,13.2c0.1,0,0.4,0,0.5,0c0.9-5.2,4.3-10,4.3-10s89.3-11,103.2-6.2c5.7,2,10.2,6.5,13.5,11.1
				C1048.6-364.8,1045.4-370.7,1033.3-370.9L1033.3-370.9z"/>
			<path id="path21811" inkscape:connector-curvature="0" class="st26" d="M949.1-317.6c-4,39.9-2.3,64.1-0.5,66.7
				c1.8,2.5,96.2,4,104,2.5c7.8-1.5,7.3-5.8,7.8-9.3c0.5-3.5-18.7-43.2-18.7-43.2L949.1-317.6z"/>
			<path id="path21813" sodipodi:nodetypes="ccscscc" inkscape:connector-curvature="0" class="st27" d="M1060.5-336.7
				c-7.5,1.1-8.2,1.4-8.6,3.6c-0.4,2.1,22.7,73.8,27.9,75.9c4.5,1.8,7.3-4.1,9.8-8.4c2.5-4.3,3.4-5.4,1.6-5.4
				c-1.8,0-7.5-2.5-8.9-5.4C1080.8-279.2,1060.5-336.7,1060.5-336.7L1060.5-336.7z"/>
			<path id="path21815" sodipodi:nodetypes="cccccccccccc" inkscape:connector-curvature="0" class="st27" d="M957.5-333.9
				c-5.4,0.1-9.1,5.4-8.4,10.5c-0.1,18.7-0.7,46-0.6,64.7c0.7,5.2,6.3,8.3,11.3,7.4c29.9,0,59.9,0,89.8,0c3.2-0.5,6.2-2.4,7.6-5.3
				c1.4-4.1-1.4-8-2.1-12c-5.2-17.2-10.1-43.2-15.8-60.3c-1.7-3.3-5.2-5.8-9.1-5.2c-24.1,0-48.2,0-72.4,0L957.5-333.9L957.5-333.9z"
				/>
			<path id="path21817" inkscape:connector-curvature="0" class="st28" d="M1059.3-333.9c-4.7,0.2-5.6,1-5.3,2.4
				c0.4,1.7,22.7,64.3,24.8,69c1.2,2.8,2.8,3.3,4.5,2.6C1082.7-261.4,1069.2-302.1,1059.3-333.9L1059.3-333.9z"/>
			<path id="path21819" sodipodi:nodetypes="sssssssss" inkscape:connector-curvature="0" class="st28" d="M960.4-330.3h69.3
				c4.5,0,6.9,3.7,8.1,8.1l15.3,59c1.1,4.3-3.6,8.1-8.1,8.1h-85.3c-4.5,0-8.1-3.6-8.1-8.1l0.7-59
				C952.4-326.7,955.9-330.3,960.4-330.3z"/>
			<path id="path21821" sodipodi:nodetypes="cccccccccscccccccc" inkscape:connector-curvature="0" class="st29" d="M990.9-330.3
				l-39.2,58.5l-0.1,8.6c0,0.6,0,1.2,0.2,1.7l46.9-68.8L990.9-330.3L990.9-330.3z M1007.5-330.3L954-257.4c1.5,1.4,3.4,2.3,5.6,2.3
				h20.8l47.4-75.1H1007.5z M1032.6-329.7l-48.8,74.5h12.6l40.3-69.8C1035.8-327,1034.5-328.8,1032.6-329.7z"/>
			<path id="path21823" sodipodi:nodetypes="cccsccssccc" inkscape:connector-curvature="0" class="st30" d="M1040.9-312
				c0,0.4,0.1,0.9,0.1,1.2c0.3,4.7,8.3,46.6,6.7,47.9c-1.6,1.3-89.6,2.1-91.6,0.3c-1.6-1.4-2.6-25.8-4-40.6l-0.4,40
				c-0.1,4.5,3.6,8.1,8,8.1h85.3c4.5,0,9.4-3.8,8.1-8.1L1040.9-312L1040.9-312z"/>
			<g id="g21825" transform="matrix(1,0,0,1.0647349,1407.9958,-406.01549)">
				<path id="path21827" inkscape:connector-curvature="0" class="st22" d="M-779,131.9c-0.7,0-1.2,0.2-1.2,0.6v84.6
					c0,0.4,0.5,0.7,1.2,0.7h13.5c0.7,0,1.2-0.3,1.2-0.7v-84.6c0-0.4-0.5-0.6-1.2-0.6L-779,131.9L-779,131.9z M-672.6,131.9
					c-0.7,0-1.2,0.2-1.2,0.6v84.6c0,0.4,0.5,0.7,1.2,0.7h13.5c0.7,0,1.2-0.3,1.2-0.7v-84.6c0-0.4-0.5-0.6-1.2-0.6L-672.6,131.9
					L-672.6,131.9z M-558.9,137.5c-0.7,0-1.2,0.3-1.2,0.7v84.5c0,0.4,0.5,0.7,1.2,0.7h13.5c0.7,0,1.2-0.3,1.2-0.7v-84.5
					c0-0.4-0.5-0.7-1.2-0.7H-558.9z"/>
				<g id="g21829" transform="matrix(1.8389576,0,0,2.2234797,-18.976404,-437.93614)">
				</g>
				<g id="g21831" transform="matrix(2.4159234,0,0,2.4159234,-151.62302,-498.1559)">
					
						<path id="path21833" sodipodi:type="arc" sodipodi:cx="939.6944" sodipodi:cy="5082.4536" sodipodi:rx="5.8083773" sodipodi:ry="6.1871843" class="st22" d="
						M-274,294.1c0,3.4-2.6,6.2-5.8,6.2s-5.8-2.8-5.8-6.2s2.6-6.2,5.8-6.2C-276.6,287.9-274,290.7-274,294.1L-274,294.1z"/>
					
						<path id="path21835" sodipodi:type="arc" sodipodi:cx="939.6944" sodipodi:cy="5082.4536" sodipodi:rx="5.8083773" sodipodi:ry="6.1871843" class="st14" d="
						M-275.9,294.2c0,2.3-1.7,4.1-3.9,4.1s-3.9-1.8-3.9-4.1c0-2.3,1.7-4.1,3.9-4.1C-277.7,290.1-275.9,291.9-275.9,294.2
						L-275.9,294.2z"/>
					<path id="path21837" sodipodi:nodetypes="cscsc" inkscape:connector-curvature="0" class="st31" d="M-280.5,290.1
						c-1.8,0.4-3.1,2-3.1,4c0,2.1,1.5,3.8,3.3,4c-0.2-0.2-0.4-0.4-0.6-0.6C-282.3,296.6-283.6,292.9-280.5,290.1z"/>
				</g>
				
					<path id="path21839" sodipodi:nodetypes="ccssccccccccccccccccccccccccccccccccccsccc" inkscape:connector-curvature="0" class="st22" d="
					M-422.7-34.2c0.3,0,0.4,0,0.5,0.1c3.7,1.6,17.7,20.2,17.7,24.1s0,20.2-2.9,20.2c-2.9,0-75.1,14.8-75.1,14.8l-8.6,77
					c-0.4,2.2-0.7,6.3-0.9,10.9c0.2,29.5,1.4,66,1.4,95.5h6.2c1.9,0,3.2,22.9,0,22.3l-339.4-2.4c-6,0-6-1.5-6-2.3v-88l-11.6-0.5
					c-6,0-7.6-34.7-2.2-34.7c25.5,0.4,52.7,0.5,58.1,1.8c2.9,1.9,11.7,16.8,11.7,16.8l221.2-0.9c0,0-0.7-9.1,0.6-12.2
					c1.7-2.2,40-3.1,43.9-3.1c0.9-3-1.4-116.8,2.3-118.3C-502.5-14.7-430.5-34.4-422.7-34.2L-422.7-34.2z M-798.3,138.2l-8.8,0.2
					v69.9h83.2v-69.8L-798.3,138.2L-798.3,138.2z M-703.4,138.8v69.4h78.4v-69.5L-703.4,138.8z M-604.6,139.2v69.1h92.4
					c0,0-0.1-0.1-0.1-0.1v-70.3L-604.6,139.2L-604.6,139.2z"/>
				<path id="path21841" inkscape:connector-curvature="0" class="st14" d="M-424-28.9C-426.4-28.3-502-7-502-7s0,116.7-3.1,117.3
					c-3.1,0.6-43,0-42.4,2.4c0.6,2.4,0.4,11.9,0.4,11.9l-228.9,1c0,0-10.8-18.2-13.2-18.2c-2.4,0-53.1-2.9-52.9-0.6
					c-3.2,7.1-0.3,26.1,1.7,26.4l334.1,0.4v74.6h4.3h4.8c-0.1-29.6-1.4-48.3-0.3-95.2c0.5-5.6,1-10.6,1-12.2
					c0-4.3,9.2-81.1,9.2-81.1S-411.2,7-410.5,4c0.6-3.1,0.6-12.8,0-15.2C-411.2-13.7-421.5-29.5-424-28.9z M-826.2,137.3v14.7
					c1-2.7,3.3-4.9,6.8-5c2.4-0.3,5,0.6,6.7,2.4c0.7,0.6,1.3,1.3,1.7,2v-14.1H-826.2z M-719.7,138.1v70.6h11.9v-70.6H-719.7z
					 M-620.4,138.4v70.9h11.6v-70.9H-620.4z M-818.6,149.5c-3,0-5.5,2.5-5.5,5.5c0,3,2.5,5.5,5.5,5.5c3,0,5.5-2.5,5.5-5.5
					C-813.1,152-815.6,149.5-818.6,149.5z M-811.1,158.6c-1.7,3.7-5.7,6.4-10,4.7c-2.6-0.6-4.2-2.3-5.1-4.3V187c0.7-3.2,3-6,6.8-6.1
					c2.3-0.3,4.7,0.6,6.3,2.2c0.9,0.8,1.6,1.8,2,2.8L-811.1,158.6L-811.1,158.6z M-818.6,182.5c-3,0-5.5,2.5-5.5,5.5
					c0,3,2.5,5.5,5.5,5.5c3,0,5.5-2.5,5.5-5.5C-813.1,185-815.6,182.5-818.6,182.5z M-811.1,190.8c-1.3,4-5.4,7.2-9.9,5.5
					c-2.9-0.7-4.6-2.9-5.2-5.4v17.3h3.5v-5.9c0-1.4,1.9-2.5,4.3-2.5c2.4,0,4.3,1.1,4.3,2.5v5.9h3V190.8z M-818.4,201.9
					c-1.1,0-2.3,0.3-2.3,1v12.7c0.1,1,4.5,1.1,4.5,0v-12.7C-816.1,202.2-817.3,201.9-818.4,201.9z M-487.8,211.5l-326.4,1v3.7
					c0,1.4-1.9,2.5-4.3,2.5c-2.4,0-4.3-1.1-4.3-2.5v-3.7h-1.9c0.7,0-1.2,0.5-1.2,1.2v8.3c0,0.7-0.1,1.2,1.2,1.2l337.7,3.1
					c0.6,0,1.1-0.5,1.3-1.1c0.9-2.2,0.5-9.3,0.3-10.3C-485.9,211.4-486.5,211.5-487.8,211.5L-487.8,211.5z"/>
				<path id="path21843" sodipodi:nodetypes="csccccc" inkscape:connector-curvature="0" class="st32" d="M-825.8,219v3
					c0,0.7-0.1,1.2,1.2,1.2l337.7,3.1c0.6,0,1.1-0.5,1.4-1.1c0.3-0.9,0.4-2.5,0.5-4.2L-825.8,219z"/>
				<path id="path21845" inkscape:connector-curvature="0" class="st33" d="M-826.2,188.5v19.7h3.5v-5.9c0-0.5,0.3-1,0.7-1.4
					c0.2-0.1,0.3-0.3,0.5-0.4c0.3-0.2,0.8-0.3,1.2-0.5c0.6-0.2,1.2-0.3,1.8-0.3c0.6,0,1.1,0.1,1.7,0.2c0.5,0.1,1,0.3,1.3,0.5
					c0.2,0.1,0.4,0.2,0.5,0.4c0.1,0.1,0.1,0.1,0.2,0.2c0.3,0.4,0.5,0.8,0.5,1.2v5.9h3v-19.7H-826.2z"/>
				<path id="path21847" inkscape:connector-curvature="0" class="st34" d="M-773.6,122.4c-6.1-0.9-29.6,0.9-27.2,1.2
					c2.4,0.3,25.9,2.1,27.2,1.8C-772.3,125.1-773.6,122.4-773.6,122.4z"/>
				<path id="path21849" sodipodi:nodetypes="cccccc" inkscape:connector-curvature="0" class="st35" d="M-842.7,126.8
					c0.6,3.7,1.5,6.3,2.3,6.4l334.2,0.3v0.8c1.5-1.6,3-3.4,3.3-4C-502.4,129.3-779.1,128.9-842.7,126.8L-842.7,126.8z"/>
				
					<path id="path21851" sodipodi:nodetypes="cccccccccccccscccccccccccccccccccccccccccccccccccccsscccccccsccccccsccccccccscccsccccscccscssccccccccscsccscccccscccccccccccccccccscccc" inkscape:connector-curvature="0" class="st36" d="
					M-423.7-28.9c-0.1,0-0.2,0-0.3,0C-426.4-28.3-502-7-502-7c0,0,0,4.4,0,8.6c0,1.5,0,1.2,0,3.1c0,6.8,0,13.8-0.1,25.7
					c0.1-0.9,0.1-1.8,0.1-2c0.3-3.4,4.9-32,4.9-32l73.8-19c0,0,10.6,8.6,12.2,11.9c0.2,0.4,0.5,0.8,0.9,1.2c0-0.2,0-0.4,0-0.6
					c-0.1-0.5-0.1-0.9-0.2-1.2c-0.5-2-7.4-12.8-11.3-16.5c-0.3-0.3-0.6-0.5-0.8-0.7c0,0,0,0,0,0c-0.1-0.1-0.2-0.2-0.3-0.2
					c0,0,0,0,0,0c-0.1-0.1-0.2-0.1-0.3-0.2c0,0,0,0,0,0C-423.5-28.9-423.6-28.9-423.7-28.9L-423.7-28.9z M-503.9,102.1
					c-0.1,1-0.1,2.1-0.2,2.9c0,0.1,0,0.3,0,0.4c-0.1,1.4-0.3,2.6-0.4,3.4c0,0,0,0,0,0.1c-0.1,0.4-0.2,0.7-0.3,1
					c0,0.1-0.1,0.2-0.1,0.3c0,0.1-0.1,0.1-0.1,0.1c0,0,0,0,0,0c-0.8,0.2-3.8,0.2-8,0.3c-4.2,0.1-9.4,0.1-14.6,0.2
					c-2.6,0.1-5.1,0.1-7.5,0.2c-1.2,0-2.3,0.1-3.4,0.1c-1.1,0.1-2.1,0.1-3,0.2c-3.7,0.3-6.1,0.7-5.9,1.3c0.1,0.3,0.2,0.7,0.2,1.2
					c0.3,1.7,0.3,3.6,0.3,7.5l0.2,0.1c0.6-5.5,2.2-4.9,4-5.2c1.8-0.3,37.8-3.3,39-4.5C-503.3,111.2-503.5,106.8-503.9,102.1
					L-503.9,102.1z M-834.3,106c-3,0-5.3,0.1-6.6,0.4c-0.7,0.1-1.1,0.2-1.2,0.4c0,0,0,0.1,0,0.1c-1.4,3-1.6,8.2-1.3,13.1
					c0.8-7.1,3.8-8.9,4.9-9.6c1.5-0.9,49.6-0.3,50.6,0.6c0.3,0.3,2.4,1.7,4.8,3.3c-1.8-2.6-3.6-5-4.8-6.2c-0.5-0.5-1-0.8-1.3-0.8
					c-0.6,0-4.2-0.2-9.3-0.4c-4.4-0.2-10-0.4-15.7-0.6c-0.3,0-0.6,0-0.9,0C-822.1,106.1-829.1,106-834.3,106L-834.3,106z
					 M-809.1,123.1c-1.3,0-1.9,0.2-1.1,0.5c0.5,0.2,15.1,1.8,34.6,2.7c-0.1-0.1-0.4-0.5-0.8-1c-6.7,0.2-19.8-1.9-23.4-1.9
					c-2.4,0-5.6-0.2-7.8-0.2C-808.2,123.1-808.7,123.1-809.1,123.1z M-549.4,124.6l-200.9,0.9c76.2,3,156.1,1.5,165.5,1.1
					C-547.6,126.8-549.4,124.6-549.4,124.6z M-818.6,149.5c-0.9,0-1.8,0.2-2.6,0.6c-0.3,0.2-0.6,0.4-0.9,0.6
					c-0.1,0.1-0.3,0.2-0.4,0.4c0,0,0,0,0,0c-0.1,0.1-0.2,0.2-0.3,0.4c0,0,0,0,0,0c-0.2,0.3-0.4,0.5-0.6,0.9c0,0,0,0,0,0
					c-0.4,0.8-0.7,1.7-0.7,2.6c0,0.2,0,0.4,0,0.6c0,0,0,0,0,0c0,0.2,0.1,0.4,0.1,0.5c0.5-2.5,2.7-4.4,5.4-4.4c2.7,0,4.8,1.9,5.3,4.4
					c0-0.2,0.1-0.3,0.1-0.5c0,0,0,0,0,0s0,0,0,0c0-0.2,0-0.4,0-0.6c0-0.9-0.2-1.8-0.7-2.6c0,0,0,0,0,0c-0.2-0.3-0.4-0.6-0.6-0.9
					c-0.2-0.3-0.5-0.5-0.8-0.8c-0.3-0.2-0.6-0.4-0.9-0.6C-816.8,149.7-817.7,149.5-818.6,149.5L-818.6,149.5z M-818.6,182.5
					c-0.9,0-1.8,0.2-2.6,0.6c-0.3,0.2-0.6,0.4-0.9,0.6c-0.1,0.1-0.3,0.2-0.4,0.4c0,0,0,0,0,0c-0.1,0.1-0.2,0.2-0.3,0.4c0,0,0,0,0,0
					c-0.2,0.3-0.4,0.5-0.6,0.9c0,0,0,0,0,0c-0.4,0.8-0.7,1.7-0.7,2.6c0,0.4,0.1,0.8,0.1,1.1c0.5-2.5,2.7-4.4,5.4-4.4
					s4.8,1.9,5.3,4.4c0-0.2,0.1-0.4,0.1-0.6s0-0.4,0-0.6c0-0.9-0.2-1.8-0.7-2.6c0,0,0,0,0,0c-0.2-0.3-0.4-0.6-0.6-0.9
					c-0.2-0.3-0.5-0.5-0.8-0.8c-0.3-0.2-0.6-0.4-0.9-0.6C-816.8,182.8-817.7,182.5-818.6,182.5L-818.6,182.5z M-487.8,211.5
					l-326.4,1v2.3c22,0,325.9-0.6,327.6,0.3c0.5,0.2,0.9,0.9,1.4,1.9c0-0.4,0-0.7-0.1-1.1c0-0.1,0-0.1,0-0.2c0-0.2-0.1-0.6-0.1-0.8
					C-485.9,211.5-486.5,211.5-487.8,211.5L-487.8,211.5z M-824.4,212.6C-824.4,212.6-824.4,212.6-824.4,212.6
					C-824.4,212.6-824.4,212.6-824.4,212.6C-824.5,212.6-824.5,212.6-824.4,212.6c-0.2,0.1-0.3,0.2-0.5,0.3c0,0,0,0,0,0
					c-0.3,0.2-0.6,0.4-0.7,0.6c0,0,0,0,0,0c0,0.1-0.1,0.1-0.1,0.2v5.1c0.6-1.8,1.9-2.9,3.1-3.6v-2.7L-824.4,212.6z"/>
				<g id="g21853" transform="matrix(2.4159234,0,0,2.4159234,-160.42072,-500.41585)">
					<path id="path21855" sodipodi:nodetypes="cscc" inkscape:connector-curvature="0" class="st37" d="M-274.6,271.8
						c0.2,1,1.1,1.8,2.2,1.8s1.9-0.7,2.2-1.8C-272.2,272.5-273.5,272.3-274.6,271.8z"/>
				</g>
				<g id="g21857" transform="matrix(2.4159234,0,0,2.4159234,-160.42072,-491.68375)">
					<path id="path21859" sodipodi:nodetypes="cscc" inkscape:connector-curvature="0" class="st37" d="M-274.6,281.9
						c0.2,1,1.1,1.8,2.2,1.8s1.9-0.7,2.2-1.8C-272.2,282.5-273.5,282.4-274.6,281.9z"/>
				</g>
				<path id="path21861" sodipodi:nodetypes="ccccccccccccccc" inkscape:connector-curvature="0" class="st37" d="M-826.2,137.3v5.9
					c3.7,0.1,9.7,0.2,15.1,0.3v-6.2L-826.2,137.3z M-719.7,138.1v4.6c4.2,0.1,7.7,0.1,11.9,0.1v-4.8L-719.7,138.1z M-620.4,138.4
					v3.9c5.1,0.1,6.7,0.1,11.6,0.1v-4L-620.4,138.4z"/>
				<path id="path21863" inkscape:connector-curvature="0" class="st38" d="M-410.4-9.7c-1.2,5-3.3,10-4.2,10.6
					c-1.2,0.9-79,13.1-79.6,15.3c-0.5,1.9-3.1,77.9-3.2,101.1c0.4-4.4,0.8-8.3,0.8-9.6c0-4.3,9.2-88,9.2-88S-411.1,7.1-410.5,4
					C-410,1.4-410-6-410.4-9.7L-410.4-9.7z"/>
				<g id="g21865" transform="matrix(2.6631443,0,0,2.6631443,-147.09052,-586.9396)">
					<path id="path21867" inkscape:connector-curvature="0" class="st22" d="M-145.7,262.5c-0.1,0-0.2,0-0.4,0
						c-3.7,0.1-4.2,5.9-0.7,6.7c3.3,1.3,6.1-3.5,3.5-5.8C-143.9,262.8-144.8,262.5-145.7,262.5L-145.7,262.5z M-137.4,262.5
						c-0.1,0-0.2,0-0.4,0c-3.7,0.1-4.2,5.9-0.7,6.7c3.3,1.3,6.1-3.5,3.5-5.8C-135.7,262.8-136.5,262.5-137.4,262.5L-137.4,262.5z"/>
					<path id="path21869" inkscape:connector-curvature="0" class="st14" d="M-145.7,263.5c-1.3,0-2.3,1-2.3,2.3s1,2.3,2.3,2.3
						c1.3,0,2.3-1,2.3-2.3S-144.5,263.5-145.7,263.5z M-137.5,263.5c-1.3,0-2.3,1-2.3,2.3s1,2.3,2.3,2.3c1.3,0,2.3-1,2.3-2.3
						S-136.2,263.5-137.5,263.5z"/>
					<path id="path21871" inkscape:connector-curvature="0" class="st31" d="M-145.7,263.5c-1.3,0-2.3,1-2.3,2.3
						c0,0.2,0,0.3,0.1,0.5c0.2-1,1.1-1.8,2.2-1.8c1.1,0,2,0.8,2.2,1.8c0-0.1,0.1-0.3,0.1-0.5C-143.5,264.5-144.5,263.5-145.7,263.5
						L-145.7,263.5z M-137.5,263.5c-1.3,0-2.3,1-2.3,2.3c0,0.2,0,0.3,0.1,0.5c0.2-1,1.1-1.8,2.2-1.8c1.1,0,2,0.8,2.2,1.8
						c0-0.1,0.1-0.3,0.1-0.5C-135.2,264.5-136.2,263.5-137.5,263.5L-137.5,263.5z"/>
					<path id="path21873" inkscape:connector-curvature="0" class="st37" d="M-147.9,266.3c0.2,1,1.1,1.8,2.2,1.8s2-0.8,2.2-1.8
						C-145.5,267-146.8,266.8-147.9,266.3z M-139.7,266.3c0.2,1,1.1,1.8,2.2,1.8c1.1,0,2-0.8,2.2-1.8
						C-137.2,267-138.6,266.8-139.7,266.3z"/>
				</g>
				<g id="g21875" transform="matrix(2.6631443,0,0,2.6631443,-141.26912,-586.9396)">
				</g>
			</g>
			<g id="g21877" transform="matrix(1.1689085,0,0,1.1689085,1319.6711,-464.66521)">
				<g id="g21879" transform="translate(-8.5044645,0)">
					<g id="g21881" transform="matrix(0.96203271,0,0,1,19.122555,-0.1889881)">
						<path id="path21883" sodipodi:nodetypes="ccccc" inkscape:connector-curvature="0" class="st0" d="M-451,289.8
							c1.1-4.1,2-7.7,3.4-8.9c1.2-1.2,16.2-0.8,16.6,0l3.5,13.1L-451,289.8z"/>
						<path id="path21885" inkscape:connector-curvature="0" class="st39" d="M-448.7,290.4c0.8-3,2.1-6.8,2.6-7.2
							c0.5-0.4,13.2-0.4,13.4,0.1c0.2,0.5,2.8,10.4,2.8,10.4L-448.7,290.4z"/>
						<path id="path21887" inkscape:connector-curvature="0" class="st40" d="M-439.3,282.9c-3.3,0-6.6,0.1-6.8,0.3
							c-0.5,0.4-1.5,3.5-2.3,6.3c1.3-2.4,3.2-5.6,3.6-5.6c0.4,0,11.1,0.1,11.3,0.5c0.1,0.2,1.3,2.7,2.5,5.1
							c-0.8-2.8-1.6-5.9-1.7-6.2C-432.8,283-436,282.9-439.3,282.9L-439.3,282.9z"/>
					</g>
					<path id="path21889" sodipodi:nodetypes="sssssssss" inkscape:connector-curvature="0" class="st0" d="M-414,274.4
						c7-1.6,14-1.2,21,0c1.1,0.2,2.1,0.9,2.1,2.1v4.2c0,1.2-0.9,2.1-2.1,2.1h-21c-1.2,0-2.1-0.9-2.1-2.1v-4.2
						C-416,275.4-415.1,274.7-414,274.4z"/>
					<path id="path21891" sodipodi:nodetypes="sssssssss" inkscape:connector-curvature="0" class="st2" d="M-411.8,276.1
						c6.6-1.5,10.8-1.1,17.3,0c1.1,0.2,2,0.9,2,2v1.3c0,1.1-0.9,2-2,2h-17.3c-1.1,0-2-0.9-2-2v-1.3
						C-413.7,277-412.8,276.4-411.8,276.1z"/>
					<path id="path21893" sodipodi:nodetypes="csssccccsscc" inkscape:connector-curvature="0" class="st41" d="M-403.1,275.1
						c-2.7,0-5.4,0.2-8.7,1c-1.1,0.2-1.9,0.9-1.9,1.9v1.3c0,0.2,0,0.3,0.1,0.5c0.5-1.1,1-1.9,1.5-2.3c0.9-2,18.5-1.1,18.7,0.1
						c0.1,0.1,0.6,1,1,2.1c0-0.1,0-0.2,0-0.3v-1.3c0-1.1-0.9-1.8-1.9-1.9C-397.7,275.6-400.4,275.2-403.1,275.1L-403.1,275.1z"/>
					<path id="path21895" inkscape:connector-curvature="0" class="st42" d="M-413.7,279.5c0,1,0.9,1.9,1.9,1.9h17.4
						c1.1,0,1.9-0.8,1.9-1.9H-413.7z"/>
				</g>
				<path id="path21897" inkscape:connector-curvature="0" class="st0" d="M-405.7,285.4c-11.9,0.4-23.9,0.1-35.8,1.1
					c-6.2,1.4-10.7,7.7-9.8,14.1c0,12.8-0.4,25.7,0.2,38.5c1.4,6.4,7.9,10.7,14.4,10.1c30.6,1.2,61.3,1,92-0.2
					c6.4-0.7,12-6.7,11.3-13.3c0-13.2,0.5-26.4-0.2-39.6c-1.4-5.9-7.1-10.1-13.2-10C-366.4,285.1-386.1,285.2-405.7,285.4
					L-405.7,285.4z"/>
				<path id="path21899" sodipodi:nodetypes="sssssssss" inkscape:connector-curvature="0" class="st2" d="M-346.4,289.7
					c-29.1-1.6-60.5-0.6-90.5,0c-6.5,0.1-10.6,5.2-10.6,11.7v32.2c0,6.5,4.1,11.4,10.6,11.7c30,1.1,61,1.2,90.5,0
					c6.5-0.3,8.6-5.2,8.6-11.7v-32.2C-337.8,294.9-340,290-346.4,289.7z"/>
				<path id="path21901" inkscape:connector-curvature="0" class="st43" d="M-380,288.8c-18.9,0-38.2,0.5-57,0.9
					c-6.5,0.1-10.6,5.2-10.6,11.7v16c0.8-8.6,2.4-18.9,4.6-21.2c3-3,98.2-3.4,102.3-0.5c1,0.7,2,3,2.8,6v-0.3
					c0-6.5-2.2-11.3-8.7-11.7C-357.4,289.1-368.6,288.8-380,288.8L-380,288.8z"/>
				<path id="path21903" inkscape:connector-curvature="0" class="st42" d="M-337.8,312.5c-1.2,6.9-3.6,17.5-3.6,17.5
					s-101.8,0.7-103.4,0c-1.2-0.5-1.9-5.9-2.8-12.8v16.3c0,6.5,4.1,11.4,10.6,11.7c30,1.1,61,1.2,90.5,0c6.5-0.3,8.7-5.2,8.7-11.7
					V312.5z"/>
				<path id="path21905" sodipodi:nodetypes="csccc" inkscape:connector-curvature="0" class="st0" d="M-450.8,315.7
					c-0.9,2.3-0.9,5.9,0.2,6.6s116.6,0,116.6,0c2-0.2,3.2-7-0.2-6.6C-334.2,315.7-453.1,315.9-450.8,315.7z"/>
				<path id="path21907" sodipodi:nodetypes="cccscsc" inkscape:connector-curvature="0" class="st2" d="M-448.8,318
					c-0.5,2,0,2.9,0.7,2.7c0.7-0.2,58.2,2.5,58.2,2.5s55-2.9,55.7-3.6c0.7-0.7,0.2-1.3-0.7-1.6c-0.9-0.4-51.4-2.3-53.9-2.9
					C-391.3,314.6-448.8,318-448.8,318L-448.8,318z"/>
				<path id="path21909" sodipodi:nodetypes="ccccccc" inkscape:connector-curvature="0" class="st44" d="M-333.9,319.3
					c-1.6,0-53.7-0.4-54.4-0.3c-0.7,0.2-55.7,1-60.6,1.1c0.2,0.4,0.5,0.7,0.8,0.6c0.7-0.2,58.2,2.5,58.2,2.5s55-2.9,55.7-3.6
					C-334.1,319.5-334,319.4-333.9,319.3L-333.9,319.3z"/>
				<g id="g21911">
					<path id="path21913" inkscape:connector-curvature="0" class="st0" d="M-423.3,284c-2.9,0.2-6.1-0.5-8.9,0.6
						c-3.1,2.3-1.8,6.9-2.4,10.3c-0.8,18.2-0.9,36.4,0.6,54.5c0.7,3.3,5,3.3,7.8,2.9c3.4,0.3,8.7,1,9.7-3.2c0.7-4.9,0.3-10,0.7-14.9
						c0.4-15.8,0.6-31.6-0.8-47.3C-417.3,284.1-420.9,283.6-423.3,284z"/>
					<path id="path21915" sodipodi:nodetypes="sssssssss" inkscape:connector-curvature="0" class="st2" d="M-429.6,287.5h7.7
						c1.7,0,2.3,1.9,2.4,4.1c1.2,21.7,0.7,36.8,0,54c-0.1,2.3-0.7,4.1-2.4,4.1h-7.7c-1.7,0-1.6-1.9-1.7-4.1c-0.8-14.8-1.4-28.3,0-54
						C-431.1,289.3-431.3,287.5-429.6,287.5z"/>
					<path id="path21917" inkscape:connector-curvature="0" class="st43" d="M-429.6,287.5c-1.7,0-1.6,1.8-1.7,4.1
						c-0.8,14.9-1,25.6-0.8,35c0.8-17.6,2.5-35.3,3.1-35.9c0.7-0.7,7.3-0.2,7.3-0.2s1.6,27.3,2.8,38c0.3-11.1,0.2-22.5-0.6-36.9
						c-0.1-2.3-0.7-4.1-2.4-4.1H-429.6z"/>
					<path id="path21919" inkscape:connector-curvature="0" class="st42" d="M-432.1,326.4c0.1,6.9,0.4,13,0.8,19.3
						c0.1,2.3,0,4.2,1.7,4.2h7.7c1.7,0,2.3-1.9,2.4-4.2c0.3-6.6,0.5-12.8,0.6-19.3H-432.1z"/>
				</g>
				<g id="g21921" transform="translate(17.434152,0)">
					<path id="path21923" inkscape:connector-curvature="0" class="st0" d="M-374.9,284c-2.9,0.2-6.1-0.5-8.9,0.6
						c-3.1,2.3-1.8,6.9-2.4,10.3c-0.8,18.2-0.9,36.4,0.6,54.5c0.7,3.3,5,3.3,7.8,2.9c3.4,0.3,8.7,1,9.7-3.2c0.7-4.9,0.3-10,0.7-14.9
						c0.4-15.8,0.6-31.6-0.8-47.3C-368.8,284.1-372.4,283.6-374.9,284z"/>
					<path id="path21925" sodipodi:nodetypes="sssssssss" inkscape:connector-curvature="0" class="st2" d="M-381.1,287.5h7.7
						c1.7,0,2.3,1.9,2.4,4.1c1.2,21.7,0.7,36.8,0,54c-0.1,2.3-0.7,4.1-2.4,4.1h-7.7c-1.7,0-1.6-1.9-1.7-4.1c-0.8-14.8-1.4-28.3,0-54
						C-382.7,289.3-382.8,287.5-381.1,287.5z"/>
					<path id="path21927" inkscape:connector-curvature="0" class="st43" d="M-381.1,287.5c-1.7,0-1.6,1.8-1.7,4.1
						c-0.8,14.9-1,25.6-0.8,35c0.8-17.6,2.5-35.3,3.1-35.9c0.7-0.7,7.3-0.2,7.3-0.2s1.6,27.3,2.8,38c0.3-11.1,0.2-22.5-0.6-36.9
						c-0.1-2.3-0.7-4.1-2.4-4.1H-381.1z"/>
					<path id="path21929" inkscape:connector-curvature="0" class="st42" d="M-383.6,326.4c0.1,6.9,0.4,13,0.8,19.3
						c0.1,2.3,0,4.2,1.7,4.2h7.7c1.7,0,2.3-1.9,2.4-4.2c0.3-6.6,0.5-12.8,0.6-19.3H-383.6z"/>
				</g>
			</g>
			
				<path id="path21931" sodipodi:nodetypes="ccccccccccccsccccccccccccccccccccccccccccccsccccccccccccc" inkscape:connector-curvature="0" class="st45" d="
				M928.3-195.7c-0.4,28.4-0.8,61.1-0.8,61.1l14.2-0.1v-61L928.3-195.7L928.3-195.7z M944.7-195.7v49.6l101.4,0.1
				c0.2,0,3.5,0.2,3.6,0.1c4.7-5.1,16.4-14.2,19.8-18.9c0-0.2,0-0.8,0.1-1.6c0-0.8,0-1.9,0-3.3c0-2.6,0-6.1,0-10.1v-0.4
				c0-4.8-0.1-9.6-0.2-15.5L944.7-195.7L944.7-195.7z M1073-195.7c0,15.8,0.1,33.7,0.1,33.7l-22.3,19.8l-1.3,0.1H944.7v7.3
				l123.9-0.9c-0.2-3.2,7.9-10.7,14.2-20.6c-2,8.7-7.6,16.8-9.6,27.1c1.2,1.5,2.4,3.1,3.7,4.6c1.3-3.6,2.8-7.3,4.7-11.1
				c10.4-20.9,18.4-24.9,25.9-31.1c1.5-1.3-4.2-6-6.2-7.2c1.8-1,3.3-2,4.4-1.9l-8.4-16.3c0,0,0-1.7,0.1-3.7H1073L1073-195.7z
				 M1103.2-195.6c0.1,0.9,0.2,1.7,0.3,2.3c0,0.2,0.1,0.4,0.1,0.6c0.1,0.3,0.1,0.5,0.2,0.6c0.4,0.8,1.3,2.4,2.5,4.3s2.6,4.3,3.9,6.6
				c2.7,4.5,5.2,8.6,5.2,8.6s37.2-27.2,78-5.9c39.5,20.6,41.8,43.1,41.8,43.1l1.6-3.1c0,0,0-1.8,0.1-3.8v-1c0-2.2,0.1-5.7,0.1-9.2
				v-1.2c0-3.1,0.1-6.6,0.1-10.3c0-0.9,0-1.9,0-2.9c0-5.3,0-11.1-0.1-16.8c0-2.9-0.1-5.8-0.1-8.8c-0.6,0-1.6-0.1-1.6-0.1
				L1103.2-195.6L1103.2-195.6z"/>
			<path id="path21933" inkscape:connector-curvature="0" class="st46" d="M1090-266.9c-1.9,3.4-4.1,5.5-5.4,6.5
				c-0.4,1.8,0.3,2.7,1.2,3.6c1.9,1.9,11.2,20.9,12.6,23.7c0-1.1,0-2.3,0-3.4c0.2,1.5,0.4,2.9,0.6,4.4c0.2,0,120.1,7.4,136.2,6.7
				c-0.6-5.2-1.3-8.9-2.2-10.4c-1.4-2.2-5.7-5.7-12.8-7.1C1148.7-256.6,1118.1-263.2,1090-266.9L1090-266.9z"/>
			<path id="path21935" inkscape:connector-curvature="0" class="st26" d="M1090-266.9c-1,1.8-2.1,3.2-3.1,4.3
				c2.5-0.7,5-0.7,6.4-0.7c2,0,128.3,24.8,132.8,27.8c2.8,1.8,6.6,8.5,9.3,14c-0.6-7.1-1.4-12.3-2.6-14.1c-1.4-2.2-5.7-5.7-12.8-7.1
				C1148.7-256.6,1118.1-263.2,1090-266.9L1090-266.9z"/>
			<g id="g21937" transform="matrix(1.0436795,0,0,1.0436795,1381.7636,-400.52286)">
				<path id="path21939" inkscape:connector-curvature="0" class="st47" d="M-143.9,160.4c-4.1,0.4-5.5,2-5.5,8.9s2.5,80.9,4.1,83
					c1.6,2.1,10.7,6.1,13.4,5.5c2.7-0.5,5.5-3.7,6.1-6.8c0.5-3-1.3-84.1-2.1-87c-0.9-2.9-6.6-4.3-9.1-4.5S-143.9,160.4-143.9,160.4z
					"/>
				<path id="path21941" inkscape:connector-curvature="0" class="st48" d="M-144.9,166.9c1.4,29.3,2.9,81.3,4.1,82.5
					c1.3,1.3,6.3,3.2,7.7,2.9c1.4-0.4,3.4-2.7,3.8-3.8c0.4-1.1-2.7-78.8-3.8-81.6c-1.1-2.9-5.4-2.7-8.8-1.8
					C-145.3,166-144.9,166.9-144.9,166.9z"/>
				<path id="path21943" inkscape:connector-curvature="0" class="st49" d="M-139.2,170.4c1.3,29.5,2.9,73.9,4.5,74.3
					s2.9,0.2,4.5-1.8s0-43-0.9-52.9c-0.9-9.8,0.7-17.1-0.9-19.3C-133.7,168.6-139.2,170.4-139.2,170.4L-139.2,170.4z"/>
				<path id="path21945" inkscape:connector-curvature="0" class="st50" d="M-133.3,173.4c-1.2,0-2,0.6-1.8,1.9
					c0.2,1.7,2.2,63.9,3.1,63.4c1-0.5,1.9-5.3,1.9-10.6v-14.7c-0.3-9.7-0.8-19.1-1.2-23.2c-0.5-5.2-0.3-9.7-0.2-13.1
					c-0.3-1.9-0.6-3.4-0.6-3.4C-132.4,173.4-132.9,173.4-133.3,173.4z"/>
			</g>
			<g id="g21947" transform="matrix(1.0822314,0,0,1.120017,1486.1443,-494.15784)">
				<path id="path21949" sodipodi:nodetypes="cccsccc" inkscape:connector-curvature="0" class="st22" d="M-305.1,270.5
					c-53.9,0-88.5,37.9-88.1,83.9c-0.5,8.5,13,10.9,14.1,0c5.7-36,35.7-63.1,74-63.1c38.2,0,69.1,26.3,74.9,62.3
					c0.8,10.4,13.9,9.9,13.6-0.2C-211,317.2-255,270.5-305.1,270.5L-305.1,270.5z"/>
				<path id="path21951" sodipodi:nodetypes="sccsccs" inkscape:connector-curvature="0" class="st20" d="M-305.1,275.5
					c-42.6,0-84.1,31.8-83.6,79.6c-0.5,2.2,4.4,4.2,5.2,0c4.9-38.8,32.7-66.2,78.4-67.8c38.2-1.4,72.5,29.4,78.9,67.2
					c0.4,3.3,6.6,3,5.8-0.8C-221.8,310.4-261.6,275.5-305.1,275.5z"/>
				<path id="path21953" inkscape:connector-curvature="0" class="st51" d="M-305.3,284c-47.7,1.6-76.5,31.8-81.6,70.7
					c-0.2,1-0.6,1.6-1.1,2c1.2,1.2,4,1.5,4.6-1.6c4.9-38.8,32.7-66.2,78.4-67.8c38.2-1.4,72.5,29.4,78.9,67.2
					c0.3,2.3,3.3,2.8,4.9,1.6c-1-0.3-1.8-1-1.9-2.1C-229.9,316.2-265.6,282.6-305.3,284L-305.3,284z"/>
				<path id="path21955" inkscape:connector-curvature="0" class="st52" d="M-305.1,275.5c-37.5,0-74.1,24.5-82,62.9
					c7.3-21.6,28.3-57.2,87.3-58.9c37.1,1.5,60.3,26,73.5,47.4C-239.2,296.9-271,275.5-305.1,275.5z"/>
			</g>
			<path id="path21957" inkscape:connector-curvature="0" class="st53" d="M1018.8-222.2c0.5,2,0.2,3.9,1.1,4.6
				c0.9,0.7,24.5,1.1,27.3,0.4c2.9-0.7,3,0,3.2-1.1c0.2-1.1,0.2-4.8,0.2-4.8L1018.8-222.2z"/>
			<g id="g21959" transform="translate(1408.5493,-388.09019)">
				<path id="path21961" sodipodi:nodetypes="sssssssss" inkscape:connector-curvature="0" class="st54" d="M-392.5,153.7
					c11.8-0.4,23.9-0.5,36.6,0c0.6,0,1.1,0.2,1.1,0.5V167c0,0.3-0.5,0.4-1.1,0.5c-12,1.3-24.2,1.5-36.6,0c-0.6-0.1-1.1-0.2-1.1-0.5
					v-12.7C-393.6,154-393.1,153.7-392.5,153.7z"/>
				<path id="path21963" sodipodi:nodetypes="sssssssss" inkscape:connector-curvature="0" class="st55" d="M-388.9,156.4
					c9.5-0.4,19.2-0.4,29.5,0c0.5,0,0.9,0.2,0.9,0.4v7.4c0,0.2-0.4,0.4-0.9,0.4c-9.6,1.1-19.5,1.2-29.5,0c-0.5-0.1-0.9-0.2-0.9-0.4
					v-7.4C-389.8,156.6-389.4,156.4-388.9,156.4z"/>
				<path id="path21965" inkscape:connector-curvature="0" class="st3" d="M-374.5,156.1c-4.9,0-9.7,0.1-14.5,0.3
					c-0.5,0-0.9,0.2-0.9,0.4v7.4c0,0.1,0.1,0.1,0.1,0.2c0.5-2.6,0.8-5.5,1.6-5.7c0.9-0.2,27.3-0.2,28,0.2c0.3,0.2,0.9,1.7,1.5,3.3
					v-5.4c0-0.2-0.4-0.4-0.9-0.4C-364.6,156.2-369.6,156.1-374.5,156.1z"/>
				<path id="path21967" sodipodi:nodetypes="csccscc" inkscape:connector-curvature="0" class="st56" d="M-389.8,161.2v3
					c0,0.2,0.4,0.3,0.9,0.4c10,1.2,19.9,1.1,29.5,0c0.5-0.1,0.9-0.2,0.9-0.4v-3C-368.9,162.9-379.3,163.5-389.8,161.2z"/>
			</g>
			<g id="g21969" transform="matrix(1.0514555,0,0,1.0514555,1381.2475,-409.17304)">
				<g id="g21971" transform="matrix(2.8066454,0,0,2.9883333,-166.86644,-687.41346)">
					<path id="path21973" inkscape:connector-curvature="0" class="st54" d="M-91.8,262.8c-3.7,0.1-4.2,5.9-0.7,6.7
						c3.3,1.3,6.1-3.5,3.5-5.8C-89.7,263-90.8,262.7-91.8,262.8z"/>
					
						<path id="path21975" sodipodi:type="arc" sodipodi:cx="943.92444" sodipodi:cy="5062.5664" sodipodi:rx="3.3461304" sodipodi:ry="3.3461304" class="st57" d="
						M-89.2,266.1c0,1.3-1,2.3-2.3,2.3s-2.3-1-2.3-2.3s1-2.3,2.3-2.3S-89.2,264.8-89.2,266.1z"/>
					<path id="path21977" inkscape:connector-curvature="0" class="st58" d="M-91.5,263.8c-1.3,0-2.3,1-2.3,2.3c0,0.2,0,0.3,0.1,0.5
						c0.2-1,1.1-1.8,2.2-1.8c1.1,0,2,0.8,2.2,1.8c0-0.1,0.1-0.3,0.1-0.5C-89.2,264.8-90.2,263.8-91.5,263.8z"/>
					<path id="path21979" sodipodi:nodetypes="cscc" inkscape:connector-curvature="0" class="st37" d="M-93.7,266.6
						c0.2,1,1.1,1.8,2.2,1.8c1.1,0,1.9-0.7,2.2-1.8C-91.2,267.3-92.5,267.1-93.7,266.6z"/>
				</g>
				<g id="g21981" transform="matrix(2.8066454,0,0,2.9883333,-166.78729,-673.3299)">
					<path id="path21983" inkscape:connector-curvature="0" class="st54" d="M-91.7,275.9c-3.7,0.1-4.2,5.9-0.7,6.7
						c3.3,1.3,6.1-3.5,3.5-5.8C-89.6,276.1-90.7,275.8-91.7,275.9z"/>
					
						<path id="path21985" sodipodi:type="arc" sodipodi:cx="943.92444" sodipodi:cy="5062.5664" sodipodi:rx="3.3461304" sodipodi:ry="3.3461304" class="st57" d="
						M-89.1,279.2c0,1.3-1,2.3-2.3,2.3s-2.3-1-2.3-2.3c0-1.3,1-2.3,2.3-2.3S-89.1,277.9-89.1,279.2z"/>
					<path id="path21987" inkscape:connector-curvature="0" class="st58" d="M-91.4,276.9c-1.3,0-2.3,1-2.3,2.3c0,0.2,0,0.3,0.1,0.5
						c0.2-1,1.1-1.8,2.2-1.8s2,0.8,2.2,1.8c0-0.1,0.1-0.3,0.1-0.5C-89.1,277.9-90.1,276.9-91.4,276.9z"/>
					<path id="path21989" sodipodi:nodetypes="cscc" inkscape:connector-curvature="0" class="st37" d="M-93.6,279.7
						c0.2,1,1.1,1.8,2.2,1.8s1.9-0.7,2.2-1.8C-91.1,280.4-92.5,280.2-93.6,279.7z"/>
				</g>
				<path id="path21991" sodipodi:nodetypes="ccssssc" inkscape:connector-curvature="0" class="st54" d="M-427.7,108.4
					c2.5,23,0.5,48.9-0.1,53.5c-0.1,4.8,5.8,4.6,7.5,2.3c1.8-2.3,0.9-5,0.4-7.3c-0.5-2.3-0.2-42.6,0.3-45.1s1.6-3.9-1.7-5.9
					S-428,106-427.7,108.4L-427.7,108.4z"/>
				<path id="path21993" inkscape:connector-curvature="0" class="st57" d="M-424.5,107.1c-2.5,1.2-0.5,4.5-0.8,6.6
					c1.2,16.2,0.8,32.5-0.6,48.7c1.1,2.9,5.8,0.7,4.7-2c-1.3-11.4-0.5-22.9-0.7-34.4c0-5.5,0.4-11.2,0.9-16.7
					C-421.2,108.3-423.1,106.4-424.5,107.1z"/>
				<path id="path21995" inkscape:connector-curvature="0" class="st59" d="M-423.9,107c-0.2,0-0.4,0-0.5,0.1
					c-2.5,1.2-0.5,4.4-0.8,6.6c0.3,4.1,0.5,8.1,0.6,12.2c0.2-10.4,0.9-14.7,1.8-13.8c0.4,0.4,0.8,5,1.2,10c0.1-4.3,0.4-8.6,0.8-12.7
					C-421.1,108.4-422.6,106.9-423.9,107z"/>
				<path id="path21997" inkscape:connector-curvature="0" class="st60" d="M-425,148.5c-0.2,4.6-0.5,9.2-0.9,13.8
					c1.1,2.9,5.8,0.7,4.7-2c-0.4-3.7-0.6-7.4-0.7-11.1C-422.6,149.9-423.9,150.2-425,148.5z"/>
			</g>
			<g id="g21999" transform="translate(1408.5493,-388.09019)">
				<path id="rect22001" class="st18" d="M-340.6,141h6.8c1.4,0,2.5,0.9,2.5,1.9v23.3c0,1.1-1.1,1.9-2.5,1.9h-6.8
					c-1.4,0-2.5-0.9-2.5-1.9v-23.3C-343.1,141.9-342,141-340.6,141z"/>
				<path id="rect22003" class="st20" d="M-339.1,144.3h3.8c0.8,0,1.4,0.6,1.4,1.4V163c0,0.8-0.6,1.4-1.4,1.4h-3.8
					c-0.8,0-1.4-0.6-1.4-1.4v-17.2C-340.4,145-339.8,144.3-339.1,144.3z"/>
				<path id="path22005" inkscape:connector-curvature="0" class="st26" d="M-339.1,144.4c-0.8,0-1.4,0.6-1.4,1.4v9.6
					c0.7-3.7,1-9.8,2.2-10.1c1.4-0.3,2.9-1,3.4-0.1c0.2,0.4,0.6,2.7,0.9,5.1v-4.5c0-0.8-0.6-1.4-1.4-1.4H-339.1z"/>
				<path id="path22007" inkscape:connector-curvature="0" class="st18" d="M-342.6,148.9c-0.2,0-0.3,0.2-0.3,0.4v1.6
					c0,0.2,0.1,0.4,0.3,0.4h10c0.2,0,0.4-0.2,0.4-0.4v-1.6c0-0.2-0.2-0.4-0.4-0.4H-342.6z M-341.9,157.5
					C-342,157.5-342,157.5-341.9,157.5l-0.1,2c0,0.1,0,0.1,0.1,0.1h8.8c0.1,0,0.1,0,0.1-0.1v-1.9c0-0.1,0-0.1-0.1-0.1H-341.9z"/>
			</g>
			<g id="g22009" transform="translate(1408.5493,-388.09019)">
				<path id="rect22011" class="st18" d="M-340.6,196.4h6.8c1.4,0,2.5,0.9,2.5,1.9v23.3c0,1.1-1.1,1.9-2.5,1.9h-6.8
					c-1.4,0-2.5-0.9-2.5-1.9v-23.3C-343.1,197.3-342,196.4-340.6,196.4z"/>
				<path id="rect22013" class="st20" d="M-339.1,199.9h3.8c0.8,0,1.4,0.6,1.4,1.4v17.2c0,0.8-0.6,1.4-1.4,1.4h-3.8
					c-0.8,0-1.4-0.6-1.4-1.4v-17.2C-340.4,200.5-339.8,199.9-339.1,199.9z"/>
				<path id="path22015" inkscape:connector-curvature="0" class="st21" d="M-339.1,199.9c-0.8,0-1.4,0.6-1.4,1.4v10.3
					c0.6-4.7,1.3-9.7,1.7-9.9c0.6-0.4,3-0.7,3.5-0.3c0.4,0.3,0.9,6.1,1.3,10.3v-10.4c0-0.8-0.6-1.4-1.4-1.4H-339.1z"/>
				<path id="path22017" inkscape:connector-curvature="0" class="st18" d="M-342.6,204.2c-0.2,0-0.3,0.2-0.3,0.4v1.6
					c0,0.2,0.1,0.4,0.3,0.4h10c0.2,0,0.4-0.2,0.4-0.4v-1.6c0-0.2-0.2-0.4-0.4-0.4H-342.6z M-341.9,212.8
					C-342,212.8-342,212.9-341.9,212.8l-0.1,2c0,0.1,0,0.1,0.1,0.1h8.8c0.1,0,0.1,0,0.1-0.1v-1.9c0-0.1,0-0.1-0.1-0.1H-341.9z"/>
			</g>
			<g id="g22019" transform="matrix(1.0942016,0,0,1.0942016,1364.9193,-416.18927)">
				<path id="path22021" sodipodi:nodetypes="cccsccc" inkscape:connector-curvature="0" class="st22" d="M-602.2,221.8
					c-45.8,0-88.5,32.4-88.1,78.5c-0.5,8.5,13,10.9,14.1,0c5.7-36,35.7-63.1,74-63.1c38.2,0,69.1,26.3,74.9,62.3
					c0.8,10.4,13.9,9.9,13.6-0.2C-513.4,266.6-540.7,220.7-602.2,221.8L-602.2,221.8z"/>
				<path id="path22023" sodipodi:nodetypes="sccsccs" inkscape:connector-curvature="0" class="st20" d="M-602.2,224.4
					c-42.6,0-82.4,31.1-83.6,76.5c-0.5,2.2,4.4,4.2,5.2,0c4.9-38.8,32.7-66.2,78.4-67.8c38.2-1.4,72.5,29.4,78.9,67.2
					c0.4,3.3,6.6,3,5.8-0.8C-518.9,258.2-558.7,224.4-602.2,224.4L-602.2,224.4z"/>
				<path id="path22025" inkscape:connector-curvature="0" class="st51" d="M-602.4,229.8c-47.7,1.6-76.5,31.8-81.6,70.7
					c-0.2,1-0.6,1.6-1.1,2c1.2,1.2,4,1.5,4.6-1.6c4.9-38.8,32.7-66.2,78.4-67.8c38.2-1.4,72.5,29.4,78.9,67.2
					c0.3,2.3,3.3,2.8,4.9,1.6c-1-0.3-1.8-1-1.9-2.1C-527,262-562.6,228.4-602.4,229.8L-602.4,229.8z"/>
			</g>
			<path id="rect22027" class="st61" d="M1113.6-219.9h18.8c2.1,0,3.9,1.7,3.9,3.9v8.7c0,2.1-1.7,3.9-3.9,3.9h-18.8
				c-2.1,0-3.9-1.7-3.9-3.9v-8.7C1109.7-218.2,1111.5-219.9,1113.6-219.9z"/>
			<path id="path22029" sodipodi:nodetypes="sssssssss" inkscape:connector-curvature="0" class="st62" d="M1115.6-217.4h14.9
				c1.5,0,2.8,1.2,2.8,2.8v5.2c0,1.5-1.2,2.8-2.8,2.8h-14.9c-1.5,0-2.8-1.2-2.8-2.8v-5.2C1112.8-216.2,1114-217.4,1115.6-217.4z"/>
			<path id="path22031" inkscape:connector-curvature="0" class="st63" d="M1115.5-217.4c-1.5,0-2.8,1.2-2.8,2.8v5.1
				c0,0.3,0.1,0.6,0.2,0.8c0.6-3.7,1.9-5.4,2.9-6.1c1.1-0.7,14.7-0.5,15.6-0.2c0.4,0.2,1.2,2.1,1.9,4v-3.8c0-1.5-1.2-2.8-2.8-2.8
				L1115.5-217.4L1115.5-217.4z"/>
		</g>
		
			<g id="path22033" sodipodi:type="arc" sodipodi:cx="7780.8262" sodipodi:cy="4495.5552" sodipodi:rx="28.41054" sodipodi:ry="28.41054">
			<circle id="XMLID_1786_" class="st64" cx="552.7" cy="-107.9" r="37.3"/>
		</g>
		
			<g id="path22035" sodipodi:type="arc" sodipodi:cx="7787.1396" sodipodi:cy="4456.4116" sodipodi:rx="16.28871" sodipodi:ry="16.28871">
			<circle id="XMLID_1723_" class="st65" cx="551.6" cy="-142.4" r="16.3"/>
		</g>
	</g>
</g>
</svg>
